<svg width="20" height="20" viewBox="0 0 20 20" fill="none" xmlns="http://www.w3.org/2000/svg">
<g id="Icon Digital Board">
<path id="Vector" d="M5.6037 18.3333C5.61088 18.3336 5.61808 18.3337 5.62533 18.3337H7.70805C7.57423 18.0129 7.50033 17.6609 7.50033 17.2917V13.7519H3.54199L3.45718 13.7462C3.15212 13.7048 2.91699 13.4433 2.91699 13.1269V4.375L2.9227 4.29019C2.96408 3.98512 3.22558 3.75 3.54199 3.75H16.4577L16.5425 3.75571C16.8476 3.79709 17.0827 4.05858 17.0827 4.375V10H17.292C17.6607 10 18.0122 10.0737 18.3327 10.2072V4.375L18.3283 4.24662C18.2624 3.27097 17.4501 2.5 16.4577 2.5H3.54199L3.41362 2.50432C2.43796 2.5703 1.66699 3.38262 1.66699 4.375V13.1269L1.67132 13.2552C1.73539 14.2029 2.50355 14.9574 3.45693 15H3.33366V15.0018H3.52773L3.54199 15.0019L6.24949 15.0017V17.0833L4.79199 17.0837L4.70718 17.0894C4.40212 17.1307 4.16699 17.3922 4.16699 17.7087C4.16699 18.0467 4.4352 18.3219 4.77037 18.3333H5.6037ZM8.33366 12.7083C8.33366 11.6728 9.17316 10.8333 10.2087 10.8333H17.292C18.3275 10.8333 19.167 11.6728 19.167 12.7083V17.2917C19.167 18.3272 18.3275 19.1667 17.292 19.1667H10.2087C9.17316 19.1667 8.33366 18.3272 8.33366 17.2917V12.7083ZM11.667 12.9167C11.667 12.5715 11.3872 12.2917 11.042 12.2917C10.6968 12.2917 10.417 12.5715 10.417 12.9167C10.417 13.2618 10.6968 13.5417 11.042 13.5417C11.3872 13.5417 11.667 13.2618 11.667 12.9167ZM14.5837 12.9167C14.5837 12.5715 14.3038 12.2917 13.9587 12.2917C13.6135 12.2917 13.3337 12.5715 13.3337 12.9167C13.3337 13.2618 13.6135 13.5417 13.9587 13.5417C14.3038 13.5417 14.5837 13.2618 14.5837 12.9167ZM16.667 13.5417C17.0122 13.5417 17.292 13.2618 17.292 12.9167C17.292 12.5715 17.0122 12.2917 16.667 12.2917C16.3218 12.2917 16.042 12.5715 16.042 12.9167C16.042 13.2618 16.3218 13.5417 16.667 13.5417ZM16.042 15C16.042 14.6548 15.7622 14.375 15.417 14.375C15.0718 14.375 14.792 14.6548 14.792 15C14.792 15.3452 15.0718 15.625 15.417 15.625C15.7622 15.625 16.042 15.3452 16.042 15ZM12.5003 15.625C12.8455 15.625 13.1253 15.3452 13.1253 15C13.1253 14.6548 12.8455 14.375 12.5003 14.375C12.1552 14.375 11.8753 14.6548 11.8753 15C11.8753 15.3452 12.1552 15.625 12.5003 15.625ZM10.8337 17.2917C10.8337 17.6368 11.1135 17.9167 11.4587 17.9167H16.042C16.3872 17.9167 16.667 17.6368 16.667 17.2917C16.667 16.9465 16.3872 16.6667 16.042 16.6667H11.4587C11.1135 16.6667 10.8337 16.9465 10.8337 17.2917Z" fill="#1A1A1B"/>
</g>
</svg>
