<svg width="20" height="20" viewBox="0 0 20 20" fill="none" xmlns="http://www.w3.org/2000/svg">
<g id="Icon Support">
<path id="Vector" d="M8.46282 12.3113C8.46032 12.3053 8.45791 12.2994 8.45541 12.2934C8.34232 12.2624 8.23051 12.2281 8.12021 12.1906C8.11756 12.1897 8.11491 12.1887 8.11226 12.1878C7.71884 12.0533 7.34436 11.8779 6.9939 11.6667C5.29993 10.646 4.16699 8.78875 4.16699 6.66683C4.16699 3.44517 6.77866 0.833496 10.0003 0.833496C13.0112 0.833496 15.4892 3.11457 15.8007 6.04281C15.8372 6.38605 15.5538 6.66683 15.2087 6.66683C14.8635 6.66683 14.5882 6.38545 14.5417 6.04343C14.2375 3.80701 12.3202 2.0835 10.0003 2.0835C7.46901 2.0835 5.41699 4.13552 5.41699 6.66683C5.41699 8.66391 6.69427 10.3627 8.47649 10.9907C8.73582 10.4072 9.32049 10.0002 10.0003 10.0002C10.9207 10.0002 11.667 10.7463 11.667 11.6667C11.667 12.1645 11.4488 12.6114 11.1028 12.9167C10.809 13.1762 10.4231 13.3335 10.0003 13.3335C9.56357 13.3335 9.16599 13.1655 8.86882 12.8906C8.69516 12.7299 8.55574 12.5327 8.46282 12.3113ZM6.66468 12.9167C6.04815 12.5871 5.48605 12.1688 4.99541 11.679C4.06192 11.7859 3.33691 12.5787 3.33691 13.5408V14.0222C3.33691 14.7662 3.60234 15.4857 4.08548 16.0516C5.39073 17.5801 7.37907 18.3344 10.0007 18.3344C12.6217 18.3344 14.6111 17.5803 15.9189 16.0524C16.4035 15.4862 16.6698 14.7656 16.6698 14.0203V13.5408C16.6698 12.5058 15.8308 11.6667 14.7957 11.6667H12.917C12.917 12.1141 12.8163 12.5379 12.6363 12.9167H14.7957C15.1404 12.9167 15.4198 13.1962 15.4198 13.5408V14.0203C15.4198 14.4675 15.2601 14.8999 14.9692 15.2396C13.9222 16.4628 12.2826 17.0844 10.0007 17.0844C7.71871 17.0844 6.08047 16.4629 5.03605 15.2398C4.74617 14.9003 4.58691 14.4686 4.58691 14.0222V13.5408C4.58691 13.1962 4.86631 12.9167 5.21097 12.9167H6.66468ZM6.66699 6.66683C6.66699 4.82588 8.15937 3.3335 10.0003 3.3335C10.815 3.3335 11.5618 3.62601 12.1411 4.11169C12.8702 4.72315 13.3337 5.64085 13.3337 6.66683C13.3337 7.81521 12.7529 8.828 11.8692 9.42741C11.363 9.00458 10.7114 8.75016 10.0003 8.75016C11.1509 8.75016 12.0837 7.81742 12.0837 6.66683C12.0837 5.51624 11.1509 4.5835 10.0003 4.5835C8.84974 4.5835 7.91699 5.51624 7.91699 6.66683C7.91699 7.81742 8.84974 8.75016 10.0003 8.75016C9.28849 8.75016 8.63724 9.00508 8.13167 9.4275C7.63872 9.09325 7.24004 8.63033 6.98381 8.08704C6.78055 7.65595 6.66699 7.17445 6.66699 6.66683Z" fill="#1A1A1B"/>
</g>
</svg>
