<svg width="20" height="20" viewBox="0 0 20 20" fill="none" xmlns="http://www.w3.org/2000/svg">
<g id="Icon Apps">
<path id="Vector" d="M15.4102 1.94248L18.0592 4.59146C18.7914 5.3237 18.7914 6.51088 18.0592 7.24311L15.9055 9.39641C16.808 9.53175 17.5 10.3103 17.5 11.2506V15.6256C17.5 16.6611 16.6605 17.5006 15.625 17.5006H4.375C3.33947 17.5006 2.5 16.6611 2.5 15.6256V4.37554C2.5 3.34 3.33947 2.50054 4.375 2.50054H8.75C9.69075 2.50054 10.4697 3.19342 10.6044 4.09671L12.7586 1.94248C13.4908 1.21025 14.678 1.21025 15.4102 1.94248ZM3.75 15.6256C3.75 15.9707 4.02982 16.2506 4.375 16.2506L9.37417 16.25L9.375 10.6256L3.75 10.625V15.6256ZM10.6242 16.25L15.625 16.2506C15.9702 16.2506 16.25 15.9707 16.25 15.6256V11.2506C16.25 10.9053 15.9702 10.6256 15.625 10.6256L10.6242 10.625V16.25ZM8.75 3.75054H4.375C4.02982 3.75054 3.75 4.03036 3.75 4.37554V9.375H9.375V4.37554C9.375 4.03036 9.09517 3.75054 8.75 3.75054ZM10.625 7.75831V9.37558L12.2417 9.375L10.625 7.75831ZM13.6424 2.82636L10.9935 5.47535C10.7494 5.71942 10.7494 6.11515 10.9935 6.35923L13.6424 9.00816C13.8865 9.25225 14.2822 9.25225 14.5263 9.00816L17.1753 6.35923C17.4194 6.11515 17.4194 5.71942 17.1753 5.47535L14.5263 2.82636C14.2822 2.58229 13.8865 2.58229 13.6424 2.82636Z" fill="#1A1A1B"/>
</g>
</svg>
