<svg width="20" height="20" viewBox="0 0 20 20" fill="none" xmlns="http://www.w3.org/2000/svg">
<g id="Icon User Board">
<path id="Vector" d="M17.5 5.20833C17.5 3.71256 16.2874 2.5 14.7917 2.5H5.20833C3.71256 2.5 2.5 3.71256 2.5 5.20833V14.7917C2.5 16.2874 3.71256 17.5 5.20833 17.5H10.9765C10.8802 17.1945 10.8333 16.8784 10.8333 16.5625V16.4767C10.8333 16.4002 10.8371 16.3246 10.8443 16.25H5.20833C4.40292 16.25 3.75 15.5971 3.75 14.7917V7.08333H16.25V9.28742C16.7302 9.43033 17.1584 9.69358 17.5 10.0421V5.20833ZM5.20833 3.75H14.7917C15.5971 3.75 16.25 4.40292 16.25 5.20833V5.83333H3.75V5.20833C3.75 4.40292 4.40292 3.75 5.20833 3.75ZM17.5 12.0833C17.5 13.2339 16.5672 14.1667 15.4167 14.1667C14.2661 14.1667 13.3333 13.2339 13.3333 12.0833C13.3333 10.9327 14.2661 10 15.4167 10C16.5672 10 17.5 10.9327 17.5 12.0833ZM19.1667 16.5625C19.1667 17.8596 18.0952 19.1667 15.4167 19.1667C12.7381 19.1667 11.6667 17.8645 11.6667 16.5625V16.4767C11.6667 15.6607 12.3281 15 13.1439 15H17.6894C18.5052 15 19.1667 15.6608 19.1667 16.4767V16.5625Z" fill="#1A1A1B"/>
</g>
</svg>
