<svg width="20" height="20" viewBox="0 0 20 20" fill="none" xmlns="http://www.w3.org/2000/svg">
<g id="Icon Team">
<path id="Vector" d="M12.2953 8.33333C13.1007 8.33333 13.7537 8.98625 13.7537 9.79167V13.7492C13.7537 15.8207 12.0743 17.5 10.0028 17.5C7.93126 17.5 6.25193 15.8207 6.25193 13.7492V9.79167C6.25193 8.98625 6.90485 8.33333 7.71027 8.33333H12.2953ZM12.2953 9.58333H7.71027C7.59521 9.58333 7.50193 9.67658 7.50193 9.79167V13.7492C7.50193 15.1303 8.62158 16.25 10.0028 16.25C11.384 16.25 12.5037 15.1303 12.5037 13.7492V9.79167C12.5037 9.67658 12.4104 9.58333 12.2953 9.58333ZM3.12533 8.33333L5.94306 8.33255C5.65692 8.67875 5.47053 9.11042 5.42793 9.5835L3.12533 9.58333C3.01027 9.58333 2.91699 9.67658 2.91699 9.79167V12.499C2.91699 13.6502 3.85019 14.5833 5.00136 14.5833C5.16802 14.5833 5.33011 14.5637 5.48546 14.5268C5.55605 14.9467 5.68496 15.3472 5.86272 15.72C5.58847 15.7942 5.29948 15.8333 5.00136 15.8333C3.15984 15.8333 1.66699 14.3405 1.66699 12.499V9.79167C1.66699 8.98625 2.31991 8.33333 3.12533 8.33333ZM14.0626 8.33255L16.8753 8.33333C17.6807 8.33333 18.3337 8.98625 18.3337 9.79167V12.5C18.3337 14.3409 16.8412 15.8333 15.0003 15.8333C14.7033 15.8333 14.4153 15.7945 14.1412 15.7216C14.3203 15.3481 14.4493 14.9476 14.5212 14.5276C14.6747 14.5642 14.8352 14.5833 15.0003 14.5833C16.1509 14.5833 17.0837 13.6506 17.0837 12.5V9.79167C17.0837 9.67658 16.9904 9.58333 16.8753 9.58333L14.5777 9.5835C14.5351 9.11042 14.3487 8.67875 14.0626 8.33255ZM10.0003 2.5C11.3811 2.5 12.5003 3.61929 12.5003 5C12.5003 6.38071 11.3811 7.5 10.0003 7.5C8.61958 7.5 7.50033 6.38071 7.50033 5C7.50033 3.61929 8.61958 2.5 10.0003 2.5ZM15.417 3.33333C16.5676 3.33333 17.5003 4.26607 17.5003 5.41667C17.5003 6.56726 16.5676 7.5 15.417 7.5C14.2664 7.5 13.3337 6.56726 13.3337 5.41667C13.3337 4.26607 14.2664 3.33333 15.417 3.33333ZM4.58366 3.33333C5.73425 3.33333 6.66699 4.26607 6.66699 5.41667C6.66699 6.56726 5.73425 7.5 4.58366 7.5C3.43307 7.5 2.50033 6.56726 2.50033 5.41667C2.50033 4.26607 3.43307 3.33333 4.58366 3.33333ZM10.0003 3.75C9.30999 3.75 8.75033 4.30964 8.75033 5C8.75033 5.69036 9.30999 6.25 10.0003 6.25C10.6907 6.25 11.2503 5.69036 11.2503 5C11.2503 4.30964 10.6907 3.75 10.0003 3.75ZM15.417 4.58333C14.9567 4.58333 14.5837 4.95643 14.5837 5.41667C14.5837 5.8769 14.9567 6.25 15.417 6.25C15.8772 6.25 16.2503 5.8769 16.2503 5.41667C16.2503 4.95643 15.8772 4.58333 15.417 4.58333ZM4.58366 4.58333C4.12343 4.58333 3.75033 4.95643 3.75033 5.41667C3.75033 5.8769 4.12343 6.25 4.58366 6.25C5.04389 6.25 5.41699 5.8769 5.41699 5.41667C5.41699 4.95643 5.04389 4.58333 4.58366 4.58333Z" fill="#1A1A1B"/>
</g>
</svg>
