<svg width="20" height="20" viewBox="0 0 20 20" fill="none" xmlns="http://www.w3.org/2000/svg">
<g id="Icon User">
<path id="Vector" d="M14.167 11.2498C14.167 10.5595 13.6073 9.99984 12.917 9.99984H7.08366C6.3933 9.99984 5.83366 10.5595 5.83366 11.2498V11.6665C5.83366 13.3093 7.38325 14.9998 10.0003 14.9998C12.6174 14.9998 14.167 13.3093 14.167 11.6665V11.2498ZM12.292 6.87484C12.292 5.60919 11.266 4.58317 10.0003 4.58317C8.73466 4.58317 7.70866 5.60919 7.70866 6.87484C7.70866 8.14049 8.73466 9.1665 10.0003 9.1665C11.266 9.1665 12.292 8.14049 12.292 6.87484ZM18.3337 9.99984C18.3337 14.6022 14.6027 18.3332 10.0003 18.3332C5.39795 18.3332 1.66699 14.6022 1.66699 9.99984C1.66699 5.39746 5.39795 1.6665 10.0003 1.6665C14.6027 1.6665 18.3337 5.39746 18.3337 9.99984ZM17.0837 9.99984C17.0837 6.08782 13.9123 2.9165 10.0003 2.9165C6.08831 2.9165 2.91699 6.08782 2.91699 9.99984C2.91699 13.9118 6.08831 17.0832 10.0003 17.0832C13.9123 17.0832 17.0837 13.9118 17.0837 9.99984Z" fill="#1A1A1B"/>
</g>
</svg>
