<svg width="20" height="20" viewBox="0 0 20 20" fill="none" xmlns="http://www.w3.org/2000/svg">
<g id="Icon Board">
<path id="Vector" d="M15.2095 2.08179C16.6537 2.08179 17.8339 3.21205 17.9136 4.63635L17.9178 4.79003L17.9173 14.7932C17.9172 16.2889 16.7047 17.5015 15.2089 17.5015H5.20838C3.76418 17.5015 2.58397 16.3712 2.50428 14.9469L2.5 14.7932L2.5005 4.79005C2.50068 3.29435 3.71318 2.08179 5.20888 2.08179H15.2095ZM9.58333 7.91512L3.75 7.91595L3.75008 14.7932L3.75607 14.9271C3.82366 15.6697 4.44804 16.2515 5.20833 16.2515L9.58333 16.2509V7.91512ZM16.6667 12.9151L10.8333 12.9159V16.2509L15.2088 16.2515C16.0143 16.2515 16.6672 15.5985 16.6673 14.7931L16.6667 12.9151ZM15.2095 3.33179L10.8333 3.33095V11.6659L16.6667 11.6651L16.6678 4.7901L16.6618 4.65615C16.5942 3.91349 15.9698 3.33179 15.2095 3.33179ZM9.58333 3.33095L5.20894 3.33179L5.08936 3.33663C4.33988 3.39752 3.75059 4.02503 3.7505 4.79015L3.75 6.66595L9.58333 6.66512V3.33095Z" fill="#1A1A1B"/>
</g>
</svg>
